<svg width="1024" height="1024" viewBox="0 0 1024 1024" fill="none" xmlns="http://www.w3.org/2000/svg">
<g clip-path="url(#clip0_730_22)">
<path d="M-326 -326H1350V1350H-326V-326ZM515.367 24.8601L513.195 24.4902C511.663 26.3561 511.795 27.9126 511.794 30.3431L512.074 337.973L512.29 396.664C512.321 406.461 513.183 417.244 511.858 426.91C510.93 411.262 511.424 395.313 511.375 379.627L511.2 295.616L511.165 24.8683L205.513 25.0418L118.76 25.0794C103.378 25.0762 86.8656 23.8945 71.6245 25.8274C60.4048 27.2497 49.3634 31.6623 41.2781 39.7477C33.3973 47.6285 26.9224 58.6338 25.23 69.7291C22.9664 84.5693 24.3838 101.131 24.4231 116.202L24.6343 202.884L24.266 508.725L271.55 508.735L353.176 508.709C367.478 508.707 381.937 508.221 396.212 508.869C384.297 509.795 372.07 509.334 360.116 509.367L296.775 509.484L97.8562 509.622C85.8819 509.627 32.6444 507.853 24.2005 510.993C25.4117 512.651 27.5231 512.71 29.51 513.007C43.1243 515.041 57.5094 512.322 71.2611 513.776C55.7041 514.647 39.9589 514.092 24.374 514.162L24.4198 824.739L24.4264 912.577C24.4362 928.159 23.1661 945.257 25.4657 960.652C26.978 970.777 32.407 979.733 39.5742 986.871C46.4468 993.717 55.0429 998.238 64.6651 999.708C79.263 1001.94 95.7693 1000.53 110.616 1000.54L198.482 1000.53L511.422 1000.54C511.463 989.976 510.864 978.912 511.864 968.424C511.897 968.738 511.931 969.052 511.961 969.366C512.702 977.463 510.082 993.439 513.061 1000.13C514.129 1000.37 515.021 1000.58 516.123 1000.57C528.184 999.209 541.34 1000.04 553.522 1000.01L627.595 999.984L858.783 999.84L919.309 999.814C932.098 999.803 945.598 1000.75 958.201 998.493C968.759 996.601 978.249 991.4 985.814 983.755C993.377 976.111 998.302 965.792 999.943 955.191C1002.14 940.969 1000.64 925.021 1000.61 910.585L1000.55 824.489L1000.59 514.195C960.579 514.105 920.461 514.93 880.461 514.198C887.29 510.795 978.951 515.278 996.714 513.437C998.397 513.262 999.241 513.38 1000.31 512.057L1000.05 510.697C997.29 508.977 817.5 511.259 793.473 509.689C817.441 508.591 841.912 509.555 865.922 509.576L1000.58 509.517L1000.57 203.511L1000.59 115.51C1000.59 100.36 1001.94 83.579 999.811 68.6211C998.33 58.2034 992.776 47.9673 985.496 40.463C977.939 32.6755 967.564 27.199 956.816 25.5787C943.19 23.5246 928.259 24.8634 914.453 24.9092L835.206 25.0713L632.31 25.1105C593.355 25.1253 554.308 25.7128 515.367 24.8601Z" fill="#E0E4D7"/>
<path d="M511.601 426.386C512.927 416.721 512.065 405.939 512.034 396.142L511.817 337.456L511.538 29.8524C511.539 27.4221 511.407 25.8657 512.938 24L515.11 24.3699C515.758 87.136 515.799 149.907 515.233 212.675L515.603 508.901L701.097 509.237C731.596 509.186 762.745 507.836 793.185 509.158C817.209 510.727 996.979 508.446 999.74 510.166L1000 511.526C998.93 512.848 998.085 512.731 996.403 512.906C978.642 514.747 886.991 510.264 880.163 513.667L515.807 513.832L516.182 900.047C516.266 933.365 516.159 966.684 515.866 1000C514.765 1000.01 513.873 999.794 512.804 999.559C509.826 992.867 512.446 976.893 511.705 968.797C511.675 968.482 511.641 968.168 511.608 967.854C510.44 950.295 511.394 932.07 511.376 914.451L511.5 804.847L511.058 513.798L220.222 513.256C170.587 513.295 120.66 514.531 71.0552 513.245C57.3051 511.791 42.9216 514.51 29.3089 512.475C27.3222 512.179 25.211 512.12 24 510.462C32.4429 507.322 85.6744 509.096 97.6472 509.091L296.543 508.953L359.877 508.836C371.83 508.803 384.055 509.264 395.969 508.338C434.446 507.791 472.997 508.312 511.48 508.386C511.623 481.06 511.065 453.704 511.601 426.386Z" fill="#FEFEFE"/>
<path d="M510.309 25.1491L510.343 295.227L510.518 379.03C510.567 394.678 510.074 410.587 511 426.197C510.464 453.449 511.021 480.739 510.879 508C472.463 507.927 433.979 507.407 395.57 507.953C381.321 507.306 366.889 507.791 352.614 507.793L271.14 507.819L24.3164 507.809L24.6839 202.725L24.4732 116.257C24.434 101.223 23.0192 84.7024 25.2786 69.8989C26.9678 58.8311 33.4306 47.853 41.2967 39.9917C49.3671 31.9263 60.3878 27.5246 71.5866 26.1058C86.7994 24.1776 103.282 25.3564 118.635 25.3597L205.226 25.3221L510.309 25.1491ZM261.904 168.181C205.361 174.504 164.618 225.386 170.837 281.908C177.056 338.428 227.893 379.244 284.46 373.136C341.18 367.011 382.156 316.04 375.918 259.367C369.681 202.694 318.601 161.84 261.904 168.181Z" fill="#008065"/>
<path d="M516 24.4223C554.889 25.2762 593.885 24.6879 632.788 24.6731L835.415 24.6338L914.557 24.4715C928.344 24.4256 943.256 23.0849 956.864 25.1419C967.598 26.7645 977.959 32.2485 985.506 40.0468C992.776 47.5615 998.322 57.8117 999.802 68.2438C1001.92 83.2224 1000.58 100.027 1000.58 115.197L1000.56 203.32L1000.57 509.749L866.091 509.808C842.112 509.787 817.674 508.822 793.737 509.921C763.335 508.597 732.223 509.949 701.761 510L516.492 509.664L516.123 213.004C516.688 150.144 516.647 87.2805 516 24.4223ZM604.787 133.793L604.573 413.523L806.14 413.215C837.936 413.246 869.85 412.812 901.632 413.657L901.791 242.571C901.786 206.234 902.523 169.738 901.734 133.418L711.824 133.949L643.841 134.026C630.868 134.023 617.737 134.501 604.787 133.793Z" fill="#FBAF33"/>
<path d="M604 412.866L604.214 133.375C617.186 134.082 630.337 133.604 643.331 133.608L711.422 133.531L901.634 133C902.425 169.289 901.687 205.754 901.692 242.06L901.533 413C869.7 412.155 837.735 412.589 805.889 412.558L604 412.866ZM629.019 155.355C628.993 173.933 628.431 192.737 629.168 211.291C658.047 213.006 687.609 211.735 716.561 211.725L879.233 211.759C879.305 193.084 879.176 174.41 878.843 155.738C840.277 155.23 801.673 155.662 763.1 155.649L629.019 155.355ZM629.142 233.063L629.084 299.324L698.691 299.565L698.844 232.917L629.142 233.063ZM719.891 232.979L719.905 300.19L789.186 299.673L788.893 233.223C765.913 232.935 742.87 232.552 719.891 232.979ZM820.875 233.551L810.135 233.821C810.137 255.823 809.458 278.113 810.379 300.087L867.292 300.164L878.994 300.276L879.364 233.018C859.887 233.074 840.338 232.779 820.875 233.551ZM810.211 320.922L809.947 389.386L879.078 389.401C879.024 366.494 878.762 343.547 879.177 320.642C856.189 320.865 833.2 320.958 810.211 320.922ZM628.953 321.49L628.968 389.416L675.845 389.44C683.408 389.435 691.224 389.872 698.747 389.345L699.096 321.327L628.953 321.49ZM719.937 321.466C719.986 344.084 719.539 366.827 720.221 389.429L788.43 389.271L788.672 321.413L719.937 321.466Z" fill="#008065"/>
<path d="M629.378 212.101C628.642 193.493 629.203 174.633 629.229 156L763.062 156.296C801.564 156.309 840.097 155.875 878.592 156.384C878.924 175.111 879.053 193.841 878.981 212.571L716.609 212.536C687.711 212.546 658.204 213.821 629.378 212.101Z" fill="#E0E4D7"/>
<path d="M285.618 373.395C228.869 379.497 177.869 338.722 171.629 282.259C165.39 225.796 206.265 174.965 262.99 168.648C319.869 162.313 371.113 203.126 377.371 259.742C383.628 316.357 342.52 367.276 285.618 373.395ZM271.494 190.515C269.888 193.457 268.362 197.83 269.193 201.221C269.575 202.779 270.588 204.972 272.073 205.762C273.594 206.571 275.175 206.538 276.855 206.623C278.597 203.798 280.149 199.115 279.328 195.778C278.969 194.32 278.081 192.158 276.729 191.349C275.098 190.373 273.33 190.53 271.494 190.515ZM217.205 211.425C215.838 213.429 214.546 215.006 214.953 217.574C215.294 219.723 216.413 221.597 218.301 222.731C220.34 223.957 221.848 223.762 224.09 223.432C226.015 221.38 226.73 221.038 227.118 218.182C226.061 215.156 224.663 213.837 221.777 212.469C220.246 211.743 218.898 211.536 217.205 211.425ZM328.301 211.65C325.077 213.83 323.173 215.187 322.353 219.175C321.97 221.041 322.262 221.452 322.757 223.207C324.205 224.566 325.762 225.018 327.768 224.957C328.263 224.943 328.745 224.792 329.232 224.709C331.821 222.454 335.05 220.279 335.17 216.54C335.211 215.24 334.654 214.491 333.66 213.644C332.433 212.597 329.894 211.762 328.301 211.65ZM237.173 238.379C235.195 240.095 233.913 240.773 233.096 243.293C233.369 244.259 233.492 245.28 233.917 246.19C234.684 247.837 273.946 276.169 278.455 279.164C288.704 274.078 296.819 265.033 305.977 258.248C307.788 256.666 309.717 255.359 310.44 252.978C309.622 250.926 309.434 250.784 307.598 249.523C298.694 249.023 287.121 262.78 279.941 267.761C270.039 260.251 247.607 242.049 237.173 238.379ZM342.948 266.652C341.414 268.663 340.785 269.608 340.449 272.203C341.316 274.269 341.727 274.98 343.9 275.799C346.972 276.957 350.872 276.411 354.081 276.189C355.54 274.137 356.02 273.264 356.163 270.653C354.922 268.611 354.114 267.83 351.762 267.109C349.009 266.267 345.783 266.497 342.948 266.652ZM197.744 267.528C195.689 268.504 194.725 269.156 193.378 270.992C193.442 272.909 193.542 273.333 195.074 274.612C197.431 276.577 200.958 276.471 203.813 276.383C204.894 276.35 205.973 276.334 207.055 276.293C208.639 274.529 209.282 273.576 209.921 271.216C209.125 269.342 208.535 268.502 206.461 267.894C203.636 267.067 200.64 267.362 197.744 267.528ZM324.645 317.388C322.934 319.042 320.803 320.733 320.708 323.297C320.631 325.344 321.634 327.246 323.104 328.624C325.346 330.723 327.932 332.276 330.687 333.596C332.079 332.067 334.068 330.281 334.001 328.058C333.875 323.911 330.804 321.492 327.757 319.171C326.746 318.401 325.821 317.861 324.645 317.388ZM222.233 318.616C218.285 321.014 215.813 322.906 214.187 327.297C214.446 329.502 214.397 330.276 216.383 331.668C217.229 332.26 218.96 332.521 219.94 332.69C223.493 330.244 227.315 328.114 228.485 323.663C228.017 321.776 227.831 321.025 226.037 319.89C225.037 319.257 223.383 318.941 222.233 318.616ZM270.865 333.861C269.463 337.632 268.049 343.073 269.673 346.944C270.434 348.757 271.751 350.035 273.682 350.543C274.383 350.728 275.624 350.765 276.376 350.806C278.551 347.291 279.903 343.086 278.841 338.955C278.273 336.742 276.863 335.497 274.99 334.328L270.865 333.861Z" fill="#E0E4D7"/>
<path d="M276.688 206C274.627 205.916 272.687 205.948 270.82 205.145C268.999 204.361 267.756 202.182 267.287 200.635C266.268 197.267 268.14 192.924 270.111 190.001C272.363 190.016 274.533 189.86 276.533 190.829C278.192 191.633 279.282 193.781 279.723 195.229C280.73 198.543 278.826 203.194 276.688 206Z" fill="#008065"/>
<path d="M223.784 222.777C221.403 223.072 219.802 223.248 217.636 222.147C215.631 221.13 214.443 219.448 214.081 217.519C213.649 215.215 215.021 213.799 216.472 212C218.27 212.1 219.702 212.285 221.328 212.937C224.393 214.165 225.877 215.349 227 218.065C226.588 220.628 225.829 220.935 223.784 222.777Z" fill="#008065"/>
<path d="M328.058 223.772C327.571 223.847 327.089 223.982 326.594 223.995C324.587 224.05 323.029 223.642 321.58 222.418C321.084 220.836 320.793 220.465 321.176 218.783C321.996 215.189 323.901 213.966 327.126 212C328.72 212.101 331.26 212.854 332.488 213.798C333.481 214.561 334.039 215.236 333.998 216.408C333.878 219.779 330.648 221.739 328.058 223.772Z" fill="#008065"/>
<path d="M629 300.758L629.057 234.146L698 234L697.849 301L629 300.758Z" fill="#E0E4D7"/>
<path d="M719.015 301L719 234.19C742.213 233.765 765.49 234.146 788.704 234.432L789 300.486L719.015 301Z" fill="#E0E4D7"/>
<path d="M810.238 234.81L820.905 234.541C840.237 233.773 859.654 234.066 879 234.011L878.632 301L867.009 300.889L810.48 300.812C809.565 278.925 810.24 256.725 810.238 234.81Z" fill="#E0E4D7"/>
<path d="M278.157 280C273.668 276.99 234.581 248.508 233.817 246.852C233.395 245.937 233.272 244.911 233 243.94C233.814 241.407 235.09 240.725 237.06 239C247.446 242.689 269.779 260.987 279.637 268.538C286.785 263.53 298.306 249.7 307.171 250.203C308.998 251.471 309.186 251.614 310 253.676C309.28 256.07 307.36 257.383 305.557 258.974C296.439 265.794 288.361 274.888 278.157 280Z" fill="#008065"/>
<path d="M353.748 276.644C350.277 276.888 346.057 277.488 342.734 276.215C340.383 275.316 339.938 274.535 339 272.264C339.363 269.413 340.044 268.375 341.704 266.165C344.771 265.995 348.261 265.742 351.239 266.667C353.784 267.459 354.658 268.318 356 270.561C355.846 273.431 355.326 274.389 353.748 276.644Z" fill="#008065"/>
<path d="M207.054 276.859C205.943 276.904 204.835 276.922 203.723 276.958C200.789 277.055 197.165 277.171 194.743 275.008C193.168 273.6 193.066 273.133 193 271.023C194.384 269.001 195.375 268.283 197.487 267.209C200.463 267.026 203.541 266.701 206.445 267.612C208.575 268.281 209.181 269.206 210 271.269C209.343 273.867 208.683 274.916 207.054 276.859Z" fill="#008065"/>
<path d="M329.759 333C327.066 331.697 324.538 330.165 322.346 328.092C320.909 326.732 319.929 324.854 320.004 322.834C320.097 320.302 322.18 318.633 323.852 317C325.002 317.467 325.906 318 326.894 318.76C329.873 321.051 332.875 323.439 332.998 327.534C333.064 329.728 331.119 331.491 329.759 333Z" fill="#008065"/>
<path d="M219.633 333C218.673 332.819 216.978 332.541 216.15 331.91C214.205 330.427 214.254 329.602 214 327.251C215.592 322.572 218.012 320.555 221.878 318C223.004 318.346 224.624 318.683 225.602 319.358C227.36 320.568 227.541 321.367 228 323.378C226.854 328.122 223.112 330.393 219.633 333Z" fill="#008065"/>
<path d="M810 388.985L810.263 321.277C833.175 321.313 856.088 321.22 879 321C878.586 343.652 878.847 366.346 878.901 389L810 388.985Z" fill="#E0E4D7"/>
<path d="M629.014 389.808L629 321.165L698 321L697.657 389.737C690.257 390.27 682.568 389.828 675.128 389.833L629.014 389.808Z" fill="#E0E4D7"/>
<path d="M719.39 389C718.696 366.735 719.15 344.332 719.1 322.052L789 322L788.754 388.845L719.39 389Z" fill="#E0E4D7"/>
<path d="M275.686 352C274.806 351.957 273.356 351.917 272.536 351.721C270.278 351.181 268.738 349.824 267.849 347.897C265.95 343.786 267.603 338.006 269.242 334L274.065 334.496C276.255 335.738 277.903 337.06 278.568 339.411C279.81 343.8 278.229 348.266 275.686 352Z" fill="#008065"/>
<path d="M71.1005 514C120.632 515.286 170.485 514.051 220.046 514.011L510.451 514.553L510.892 805.51L510.768 915.079C510.786 932.693 509.833 950.912 511 968.465C510.002 978.949 510.6 990.009 510.559 1000.56L198.118 1000.56L110.393 1000.57C95.5696 1000.56 79.0896 1001.97 64.5151 999.737C54.9081 998.268 46.3258 993.749 39.4642 986.905C32.3085 979.77 26.8881 970.818 25.3782 960.697C23.0823 945.308 24.3504 928.216 24.3406 912.641L24.334 824.839L24.2883 514.386C39.8482 514.316 55.5683 514.87 71.1005 514ZM190.403 637.496C172.044 637.485 153.641 637.218 135.288 637.518L135.264 893.403L406.885 893.288C409.159 808.579 407.783 722.426 407.736 637.577L355.515 637.5C356.204 628.824 357.821 614.075 351.854 607.244C349.379 604.383 345.797 602.722 342.017 602.684C339.04 602.632 335.964 603.774 333.861 605.912C328 611.872 330.395 629.238 330.373 637.405C292.058 636.852 253.663 637.334 215.338 637.328C215.56 628.333 215.412 619.359 215.261 610.366C214.124 608.942 212.978 607.471 211.686 606.187C209.155 603.674 206.006 602.81 202.522 602.864C199.173 602.915 196.041 603.794 193.701 606.305C187.472 612.99 190.081 629.005 190.403 637.496Z" fill="#0A5653"/>
<path d="M517 514.175L880.589 514.01C920.5 514.741 960.529 513.917 1000.45 514.007L1000.41 824.056L1000.47 910.084C1000.5 924.509 1002 940.444 999.806 954.655C998.168 965.247 993.254 975.559 985.708 983.196C978.159 990.835 968.691 996.032 958.156 997.923C945.581 1000.18 932.111 999.231 919.35 999.243L858.959 999.269L628.283 999.413L554.375 999.436C542.22 999.465 529.093 998.638 517.059 1000C517.351 966.708 517.457 933.412 517.374 900.118L517 514.175ZM649.409 641.248C640.197 642.726 633.073 645.808 627.268 653.556C623.742 658.263 622.659 662.824 622.102 668.576C620.732 682.755 621.575 697.644 621.573 711.908L621.585 788.971L621.622 840.036C621.63 847.925 620.753 857.073 622.024 864.807C622.46 867.465 624.705 869.987 626.907 871.433C628.909 872.749 632.002 874 634.427 873.4C645.063 870.767 670.335 836.93 683.554 828.138L817.312 827.845C835.019 827.865 871.974 831.672 884.307 818.801C887.583 815.382 890.058 811.067 890.861 806.369C893.583 790.435 891.89 767.313 891.906 750.454C891.929 724.333 893 697.667 891.763 671.608C891.333 662.572 889.46 656.022 882.428 649.826C876.748 644.821 870.955 643.183 863.641 642.229C852.555 640.785 840.67 641.456 829.485 641.433L771.618 641.358L691.882 641.138C677.81 641.099 663.441 640.455 649.409 641.248Z" fill="#008065"/>
<path d="M331.905 637.408C331.927 629.315 329.603 612.107 335.289 606.2C337.329 604.081 340.312 602.95 343.2 603.002C346.866 603.039 350.341 604.685 352.742 607.52C358.529 614.289 356.962 628.905 356.293 637.502C355.587 646.247 359.021 663.608 353.424 670.736C351.043 673.77 346.142 675.825 342.406 675.989C339.77 676.106 337.746 675.274 335.806 673.418C328.587 666.506 331.54 646.661 331.905 637.408Z" fill="#008065"/>
<path d="M190.843 637.311C190.51 628.899 187.81 613.033 194.255 606.411C196.677 603.923 199.918 603.053 203.383 603.002C206.988 602.949 210.246 603.805 212.865 606.294C214.202 607.566 215.388 609.024 216.565 610.434C216.72 619.343 216.874 628.233 216.644 637.144C216.257 647.438 218.984 661.646 213.619 670.899C212.207 673.333 210.006 675.451 207.016 675.891C203.378 676.426 199.005 674.939 196.222 672.707C187.419 665.646 191.592 648.292 190.921 638.314L190.843 637.311Z" fill="#008065"/>
<path d="M136.024 637.38C154.382 637.079 172.79 637.347 191.154 637.358L191.229 638.374C191.878 648.475 187.844 666.042 196.354 673.191C199.044 675.45 203.271 676.955 206.789 676.414C209.678 675.969 211.807 673.824 213.171 671.36C218.358 661.993 215.721 647.61 216.096 637.189C254.43 637.196 292.836 636.712 331.161 637.267C330.785 646.63 327.739 666.715 335.183 673.71C337.184 675.588 339.271 676.43 341.989 676.312C345.842 676.146 350.896 674.066 353.351 670.996C359.123 663.781 355.582 646.212 356.31 637.362L408.544 637.439C408.592 722.532 409.968 808.933 407.693 893.885L136 894L136.024 637.38ZM244.98 723.405L245.096 777.665H302.129L301.989 723.751C283.01 723.133 263.968 723.418 244.98 723.405ZM159.825 724.211C159.797 741.873 159.869 759.536 160.041 777.197L216.078 777.066C218.703 772.826 216.973 731.981 216.913 724.158C197.884 724.068 178.853 724.086 159.825 724.211ZM340.791 724.599L329.645 724.878L329.717 777.647L378.144 777.619L387.117 777.675L386.977 724.263L340.791 724.599ZM165.152 809.963L161.368 810.211C158.929 813.242 160.34 857.524 160.515 864.588L213.055 864.642L216.141 864.46C218.699 860.586 217.055 817.557 217.114 809.629C199.816 809.717 182.439 809.501 165.152 809.963ZM244.233 809.908L244.697 864.967C263.597 864.998 282.554 865.329 301.445 864.657L301.567 809.701C282.456 809.616 263.344 809.684 244.233 809.908ZM329.58 809.583L329.694 865.846L386.815 865.479C387.479 846.9 387.019 828.171 386.926 809.58L329.58 809.583Z" fill="#FBAF33"/>
<path d="M682.673 828.525C669.362 837.328 643.912 871.209 633.201 873.845C630.759 874.446 627.644 873.193 625.628 871.875C623.411 870.428 621.15 867.903 620.711 865.242C619.431 857.498 620.314 848.337 620.306 840.438L620.268 789.308L620.257 712.145C620.258 697.863 619.41 682.955 620.79 668.757C621.35 662.998 622.441 658.431 625.991 653.718C631.838 645.96 639.011 642.874 648.288 641.394C662.419 640.6 676.889 641.245 691.06 641.284L771.357 641.504L829.63 641.579C840.894 641.602 852.863 640.931 864.027 642.377C871.393 643.331 877.226 644.972 882.946 649.983C890.027 656.188 891.914 662.746 892.346 671.793C893.593 697.886 892.514 724.586 892.491 750.74C892.474 767.622 894.18 790.773 891.438 806.728C890.629 811.432 888.138 815.752 884.839 819.176C872.419 832.064 835.204 828.251 817.372 828.232L682.673 828.525ZM819.469 682.09C809.948 688.314 801.669 697.904 793.544 705.836C778.103 720.772 762.517 735.56 746.792 750.2C740.534 756.016 734.472 762.917 727.68 768.044C719.38 760.181 696.608 733.242 686.488 733.333C684.492 733.351 683.895 733.792 682.27 734.824C680.446 737.915 679.637 742.052 680.644 745.581C681.884 749.925 686.587 753.622 689.871 756.511C696.423 762.156 720.312 789.055 727.256 788.584C731.313 788.309 735.357 785.438 738.439 783.036C746.603 776.667 754.008 768.542 761.458 761.342L799.37 724.856C808.361 716.129 820.475 707.116 827.726 697.091C829.634 694.455 831.739 690.939 831.147 687.553C830.91 686.197 830.374 685.092 829.273 684.176C826.741 682.067 822.583 681.817 819.469 682.09Z" fill="#E0E4D7"/>
<path d="M728.146 768.375C734.891 763.229 740.912 756.301 747.126 750.463C762.743 735.767 778.221 720.921 793.555 705.928C801.625 697.965 809.847 688.339 819.302 682.091C822.395 681.816 826.524 682.068 829.039 684.185C830.131 685.104 830.664 686.214 830.899 687.575C831.487 690.974 829.397 694.504 827.502 697.15C820.301 707.214 808.271 716.261 799.342 725.021L761.691 761.647C754.292 768.875 746.938 777.032 738.831 783.425C735.77 785.836 731.754 788.718 727.725 788.994C720.829 789.467 697.105 762.464 690.598 756.798C687.337 753.898 682.666 750.186 681.434 745.825C680.435 742.283 681.238 738.131 683.049 735.027C684.663 733.991 685.256 733.549 687.239 733.531C697.288 733.439 719.903 760.482 728.146 768.375Z" fill="#008065"/>
<path d="M244.118 778L244 723.055C263.271 723.069 282.596 722.779 301.857 723.406L302 778H244.118Z" fill="#E0E4D7"/>
<path d="M159.227 778C159.051 759.705 158.978 741.409 159.006 723.113C178.459 722.984 197.916 722.965 217.372 723.059C217.433 731.162 219.202 773.472 216.518 777.864L159.227 778Z" fill="#E0E4D7"/>
<path d="M329 723.634L340.248 723.346L386.858 723L387 778L377.944 777.943L329.073 777.971L329 723.634Z" fill="#E0E4D7"/>
<path d="M161.558 862.947C161.385 856.014 159.99 812.546 162.402 809.572L166.144 809.329C183.242 808.874 200.429 809.087 217.539 809C217.481 816.782 219.107 859.019 216.577 862.821L213.524 863L161.558 862.947Z" fill="#E0E4D7"/>
<path d="M244.47 862.894L244 809.236C263.333 809.018 282.667 808.951 302 809.035L301.876 862.592C282.766 863.247 263.589 862.924 244.47 862.894Z" fill="#E0E4D7"/>
<path d="M329.115 865L329 809.003L386.757 809C386.851 827.503 387.313 846.144 386.645 864.634L329.115 865Z" fill="#E0E4D7"/>
</g>
<defs>
<clipPath id="clip0_730_22">
<rect width="1024" height="1024" fill="white"/>
</clipPath>
</defs>
</svg>
